<?xml version="1.0" encoding="utf-8"?>
<!-- Generator: Adobe Illustrator 15.1.0, SVG Export Plug-In . SVG Version: 6.00 Build 0)  -->
<!DOCTYPE svg PUBLIC "-//W3C//DTD SVG 1.1//EN" "http://www.w3.org/Graphics/SVG/1.1/DTD/svg11.dtd">
<svg version="1.1" id="Layer_1" xmlns="http://www.w3.org/2000/svg" xmlns:xlink="http://www.w3.org/1999/xlink" x="0px" y="0px"
	 width="69px" height="46px" viewBox="0 0 69 46" enable-background="new 0 0 69 46" xml:space="preserve">
<path fill-rule="evenodd" clip-rule="evenodd"  d="M34.318,40.003c-0.004-1.827,1.468-3.313,3.295-3.316
	c0.008,0,0.017,0,0.021,0c1.827-0.004,3.312,1.469,3.316,3.296c0,0.008,0,0.013,0,0.021c0.008,1.827-1.469,3.312-3.292,3.316
	c-0.008,0-0.017,0-0.024,0c-1.827,0.008-3.307-1.47-3.316-3.296C34.318,40.02,34.318,40.011,34.318,40.003L34.318,40.003z
	 M47.81,40.003L47.81,40.003c-0.004-1.827,1.474-3.313,3.296-3.316c0.008,0,0.017,0,0.021,0c1.827-0.004,3.312,1.469,3.32,3.296
	c0,0.008,0,0.013,0,0.021c0.004,1.827-1.473,3.312-3.296,3.316c-0.008,0-0.017,0-0.024,0c-1.823,0.008-3.308-1.47-3.316-3.296
	C47.81,40.02,47.81,40.011,47.81,40.003L47.81,40.003z M16.533,40.003L16.533,40.003c-0.006-1.827,1.469-3.313,3.294-3.316
	c0.008,0,0.014,0,0.022,0c1.825-0.004,3.31,1.469,3.316,3.296c0,0.008,0,0.013,0,0.021c0.006,1.827-1.469,3.312-3.296,3.316
	c-0.006,0-0.014,0-0.02,0c-1.825,0.008-3.31-1.47-3.316-3.292C16.533,40.02,16.533,40.011,16.533,40.003L16.533,40.003z
	 M3.041,40.003L3.041,40.003c-0.008-1.827,1.469-3.313,3.294-3.316c0.006,0,0.014,0,0.021,0c1.827-0.004,3.312,1.469,3.318,3.296
	c0,0.008,0,0.013,0,0.021c0.006,1.827-1.469,3.312-3.296,3.316c-0.006,0-0.014,0-0.022,0c-1.825,0.008-3.31-1.47-3.314-3.296
	C3.041,40.02,3.041,40.011,3.041,40.003L3.041,40.003z M30.321,34.14L30.321,34.14h-2.885v11.612h2.885V34.14L30.321,34.14z
	 M9.651,45.752L9.651,45.752h2.885V34.14H9.651v0.936c-1.007-0.699-2.205-1.074-3.432-1.07c-3.306,0-5.991,2.678-5.995,5.985
	c0,0.005,0,0.009,0,0.013C0.211,43.303,2.878,45.988,6.18,46c0.014,0,0.026,0,0.039,0c1.227,0.004,2.425-0.366,3.432-1.065V45.752
	L9.651,45.752z M54.422,45.752L54.422,45.752h2.885V34.14h-2.885v0.936c-1.005-0.699-2.205-1.074-3.431-1.07
	c-3.308,0-5.993,2.678-5.997,5.985c0,0.005,0,0.009,0,0.013c-0.012,3.3,2.657,5.985,5.957,5.997c0.012,0,0.028,0,0.04,0
	c1.226,0.004,2.426-0.366,3.431-1.065V45.752L54.422,45.752z M58.372,41.98L58.372,41.98c0.094,2.339,2.092,3.995,5.433,3.995
	c2.726,0,4.972-1.18,4.972-3.792c0-1.814-1.021-2.885-3.385-3.341l-1.84-0.361c-1.18-0.229-1.997-0.456-1.997-1.16
	c0-0.769,0.793-1.11,1.794-1.11c1.452,0,2.043,0.729,2.092,1.587h2.904c-0.158-2.271-1.973-3.793-4.906-3.793
	c-3.02,0-4.817,1.66-4.817,3.817c0,2.637,2.14,3.067,3.979,3.409l1.522,0.272c1.09,0.204,1.566,0.521,1.566,1.156
	c0,0.569-0.546,1.135-1.839,1.135c-1.889,0-2.503-0.973-2.523-1.814H58.372L58.372,41.98z M23.143,30.188L23.143,30.188v4.887
	c-1.007-0.699-2.203-1.074-3.43-1.07c-3.308,0-5.994,2.678-5.998,5.985c0,0.005,0,0.009,0,0.013c-0.01,3.3,2.657,5.985,5.957,5.997
	c0.014,0,0.026,0,0.041,0c1.227,0.004,2.423-0.366,3.43-1.065v0.817h2.885V30.188H23.143L23.143,30.188z M40.93,30.188L40.93,30.188
	v4.887c-1.009-0.699-2.205-1.074-3.431-1.07c-3.311,0-5.992,2.678-5.997,5.985c0,0.005,0,0.009,0,0.013
	c-0.012,3.3,2.653,5.985,5.957,5.997c0.012,0,0.024,0,0.04,0c1.226,0.004,2.422-0.366,3.431-1.065v0.817h2.881V30.188H40.93
	L40.93,30.188z M7.718,26.763l10.086-5.794l5.338,9.22H9.673L7.718,26.763L7.718,26.763L7.718,26.763z M30.321,33.073h-2.885v-2.885
	l-7.928-13.787l10.109-5.792L40.93,30.188H30.321V33.073L30.321,33.073L30.321,33.073z M45.222,30.188L31.185,5.816L41.271,0
	l17.442,30.188H45.222L45.222,30.188z"/>
</svg>
