<svg xmlns="http://www.w3.org/2000/svg" xmlns:xlink="http://www.w3.org/1999/xlink" width="500" zoomAndPan="magnify" viewBox="0 0 375 374.999991" height="500" preserveAspectRatio="xMidYMid meet" version="1.0"><defs><clipPath id="6d06270816"><path d="M 6.597656 10.027344 L 365.847656 10.027344 L 365.847656 369.277344 L 6.597656 369.277344 Z M 6.597656 10.027344 " clip-rule="nonzero"/></clipPath></defs><g clip-path="url(#6d06270816)"><path fill="#ffc107" d="M 280.066406 224.171875 C 331.90625 165.929688 353.726562 118.917969 361.882812 84.449219 C 366.601562 64.519531 366.691406 48.945312 365.480469 38.046875 C 365.007812 33.765625 364.199219 29.546875 363.050781 25.394531 C 362.5625 23.640625 361.976562 21.917969 361.300781 20.226562 L 361.300781 20.207031 C 359.660156 16.519531 357.523438 14.949219 353.390625 13.578125 C 352.203125 13.199219 351.003906 12.859375 349.792969 12.566406 C 345.578125 11.542969 341.308594 10.847656 336.984375 10.476562 C 325.976562 9.488281 310.246094 9.800781 290.246094 14.699219 C 255.730469 23.105469 208.949219 44.878906 151.804688 95.683594 L 97.875 101.03125 L 97.742188 101.03125 C 94.523438 101.390625 91.359375 102.019531 88.25 102.910156 C 85.140625 103.804688 82.128906 104.957031 79.210938 106.359375 C 76.296875 107.765625 73.519531 109.402344 70.878906 111.277344 C 68.242188 113.152344 65.78125 115.234375 63.496094 117.527344 L 9.96875 171.140625 C 9.546875 171.566406 9.164062 172.019531 8.8125 172.503906 C 8.460938 172.988281 8.152344 173.496094 7.878906 174.03125 C 7.609375 174.5625 7.378906 175.113281 7.195312 175.683594 C 7.011719 176.25 6.871094 176.828125 6.773438 177.417969 C 6.679688 178.011719 6.632812 178.605469 6.628906 179.203125 C 6.625 179.800781 6.671875 180.394531 6.761719 180.984375 C 6.851562 181.578125 6.988281 182.15625 7.167969 182.726562 C 7.347656 183.296875 7.570312 183.847656 7.839844 184.382812 C 8.105469 184.917969 8.414062 185.429688 8.757812 185.917969 C 9.105469 186.402344 9.488281 186.863281 9.90625 187.289062 C 10.324219 187.714844 10.773438 188.109375 11.25 188.46875 C 11.730469 188.824219 12.234375 189.144531 12.761719 189.421875 C 13.289062 189.703125 13.839844 189.9375 14.402344 190.132812 C 14.96875 190.324219 15.546875 190.472656 16.136719 190.578125 C 16.722656 190.683594 17.316406 190.738281 17.914062 190.75 C 18.511719 190.761719 19.109375 190.726562 19.699219 190.644531 L 62.304688 184.554688 C 68.597656 183.65625 75.605469 184.847656 83.765625 187.523438 C 88.976562 189.230469 93.582031 191.117188 98.480469 193.09375 L 103.042969 194.960938 C 107.449219 213.296875 117.875 230.464844 131.695312 244.285156 C 145.46875 258.082031 162.613281 268.550781 180.925781 272.980469 L 182.769531 277.519531 C 184.769531 282.417969 186.65625 287.046875 188.363281 292.28125 C 191.015625 300.4375 192.230469 307.472656 191.332031 313.761719 L 185.242188 356.457031 C 185.160156 357.046875 185.128906 357.640625 185.140625 358.238281 C 185.152344 358.835938 185.210938 359.425781 185.316406 360.015625 C 185.421875 360.601562 185.570312 361.175781 185.765625 361.742188 C 185.957031 362.304688 186.195312 362.851562 186.472656 363.378906 C 186.753906 363.90625 187.070312 364.40625 187.429688 364.886719 C 187.785156 365.363281 188.175781 365.8125 188.605469 366.226562 C 189.03125 366.644531 189.488281 367.027344 189.972656 367.371094 C 190.457031 367.71875 190.96875 368.023438 191.503906 368.289062 C 192.035156 368.558594 192.585938 368.78125 193.15625 368.960938 C 193.722656 369.140625 194.304688 369.277344 194.894531 369.367188 C 195.480469 369.460938 196.074219 369.503906 196.671875 369.503906 C 197.269531 369.5 197.859375 369.453125 198.449219 369.359375 C 199.039062 369.265625 199.617188 369.128906 200.183594 368.945312 C 200.753906 368.761719 201.304688 368.535156 201.835938 368.265625 C 202.367188 367.996094 202.875 367.6875 203.359375 367.339844 C 203.84375 366.988281 204.300781 366.605469 204.722656 366.1875 L 258.25 312.570312 C 267.460938 303.359375 273.257812 291.246094 274.695312 278.28125 L 280.089844 224.171875 Z M 282.539062 141.054688 C 264.628906 159.03125 239.171875 162.648438 225.734375 149.1875 C 212.296875 135.703125 215.9375 110.246094 233.84375 92.292969 C 251.777344 74.335938 277.214844 70.71875 290.652344 84.179688 C 304.113281 97.640625 300.472656 123.097656 282.5625 141.054688 Z M 282.539062 141.054688 " fill-opacity="1" fill-rule="nonzero"/></g><path fill="#ffc107" d="M 123.558594 252.417969 C 135.558594 264.5625 149.070312 274.6875 164.097656 282.796875 C 138.972656 305.425781 53.339844 328.367188 50.53125 325.558594 C 47.699219 322.707031 67.089844 231.429688 91.851562 209.160156 C 99.628906 224.667969 110.660156 239.496094 123.558594 252.417969 Z M 123.558594 252.417969 " fill-opacity="1" fill-rule="nonzero"/></svg>