<svg viewBox="0 0 59 34" fill="none" xmlns="http://www.w3.org/2000/svg" class="css-q2ms4q"><path d="M6.508 27.52c-1.758-.07-3.198-.552-4.32-1.445a8.642 8.642 0 0 1-.898-.898 5.608 5.608 0 0 1-.973-1.751c-.637-1.906-.309-4.408.936-7.153 1.067-2.35 2.713-4.68 5.584-7.909A173.76 173.76 0 0 1 8.527 6.5c.003 0-.065.119-.151.264a16.915 16.915 0 0 0-1.734 3.998c-.559 2.046-.491 3.802.198 5.164a5.044 5.044 0 0 0 2.206 2.2c1.604.785 3.953.85 6.82.19.198-.046 9.983-2.644 21.745-5.773C49.374 9.413 59 6.855 59 6.857c.004.003-27.326 11.698-41.514 17.765-2.247.96-2.848 1.203-3.904 1.574-2.7.948-5.119 1.4-7.074 1.323Z" fill="currentColor"></path></svg>